<?xml version="1.0" standalone="no"?>
<!DOCTYPE svg PUBLIC "-//W3C//DTD SVG 20010904//EN"
 "http://www.w3.org/TR/2001/REC-SVG-20010904/DTD/svg10.dtd">
<svg version="1.0" xmlns="http://www.w3.org/2000/svg"
 width="1188.000000pt" height="1280.000000pt" viewBox="0 0 1188.000000 1280.000000"
 preserveAspectRatio="xMidYMid meet">
<metadata>
Created by potrace 1.15, written by Peter Selinger 2001-2017
</metadata>
<g transform="translate(0.000000,1280.000000) scale(0.100000,-0.100000)"
fill="#000000" stroke="none">
<path d="M805 12734 c-130 -80 -219 -149 -318 -250 -249 -253 -398 -575 -464
-1004 -24 -159 -24 -569 0 -762 38 -301 109 -621 194 -868 26 -75 177 -407
194 -424 5 -5 6 6 4 25 -27 196 -43 1036 -26 1364 45 895 209 1561 467 1904
29 39 50 71 46 70 -4 0 -47 -25 -97 -55z"/>
<path d="M3728 12600 c-280 -50 -477 -123 -575 -213 -51 -46 -74 -87 -98 -171
-30 -101 -65 -116 -230 -97 -351 40 -633 -27 -705 -170 -26 -50 -26 -130 0
-187 26 -57 266 -470 352 -604 238 -374 424 -580 596 -661 55 -26 71 -29 136
-25 67 3 80 7 131 43 34 23 100 89 161 161 180 211 248 257 394 262 67 3 99
-1 150 -18 115 -38 262 -131 407 -257 40 -35 74 -63 76 -63 17 0 56 409 63
660 17 592 -78 992 -286 1200 -148 148 -305 187 -572 140z"/>
<path d="M5285 11564 c-100 -10 -244 -38 -313 -60 -89 -30 -214 -92 -262 -133
l-34 -28 -21 -339 c-12 -194 -18 -342 -12 -345 4 -3 41 -12 80 -19 40 -7 137
-25 217 -40 l145 -29 55 36 c30 20 93 75 140 122 137 137 247 321 315 524 34
103 78 297 69 306 -6 6 -325 10 -379 5z"/>
<path d="M11856 11433 c-9 -28 -26 -157 -21 -161 5 -5 45 126 45 148 0 26 -17
34 -24 13z"/>
<path d="M11796 11172 c-124 -292 -495 -927 -871 -1487 -1377 -2056 -2996
-3657 -4435 -4384 -618 -313 -1138 -463 -1731 -501 -219 -14 -398 -34 -566
-65 -624 -115 -1211 -390 -1698 -795 -105 -88 -230 -200 -222 -200 3 0 76 29
164 64 741 300 1680 475 2848 531 66 3 257 10 425 15 168 5 391 16 495 25
1367 110 2502 561 3394 1351 666 588 1194 1372 1575 2337 281 712 485 1576
590 2497 21 177 66 673 63 676 -2 2 -16 -27 -31 -64z"/>
<path d="M2196 10984 c-138 -30 -321 -125 -470 -244 -97 -78 -196 -173 -196
-188 0 -16 119 -103 200 -146 302 -160 757 -161 1176 -5 l56 21 -288 289 -289
289 -60 -1 c-33 0 -91 -7 -129 -15z"/>
<path d="M3814 10805 c-110 -55 -269 -220 -451 -470 -119 -164 -136 -213 -93
-268 62 -78 271 -55 500 55 84 40 119 51 172 55 71 6 103 -5 248 -88 50 -28
61 -30 122 -26 163 11 318 142 318 268 0 45 -49 131 -109 189 -117 114 -328
233 -505 284 -110 32 -139 32 -202 1z"/>
<path d="M4814 10432 c137 -272 42 -483 -289 -642 -111 -54 -189 -82 -315
-115 -47 -12 -84 -26 -83 -32 7 -36 208 -364 317 -518 84 -118 254 -294 312
-323 23 -12 83 -29 133 -38 85 -16 92 -15 117 1 24 16 26 21 21 64 -3 25 -20
90 -37 144 -34 105 -33 131 0 198 31 60 107 136 259 256 80 64 189 151 241
192 197 157 368 342 418 449 28 63 26 112 -7 166 -84 135 -466 238 -979 262
l-144 7 36 -71z"/>
<path d="M3078 10359 c-440 -92 -807 -231 -953 -362 -128 -114 -124 -212 13
-345 126 -123 264 -216 608 -411 223 -126 308 -189 352 -262 32 -51 33 -58 28
-119 -17 -193 -19 -250 -6 -265 19 -23 64 -18 148 16 131 54 216 159 323 399
50 112 162 435 174 500 l6 35 -73 23 c-179 56 -384 177 -485 286 -129 140
-154 294 -73 461 16 33 28 60 27 61 -1 1 -41 -7 -89 -17z"/>
<path d="M4005 9994 c-12 -79 -13 -80 -66 -28 l-48 47 -26 -59 -26 -59 -35 58
c-20 31 -39 57 -43 57 -4 0 -29 -45 -56 -101 l-50 -101 29 -23 c63 -51 117
-70 196 -70 62 0 85 5 132 28 65 32 175 135 184 173 9 35 -35 78 -103 104 -75
28 -80 27 -88 -26z"/>
<path d="M4005 9594 c-38 -13 -72 -28 -76 -32 -3 -4 -14 -63 -23 -132 -38
-276 -96 -515 -150 -617 l-33 -62 27 14 c16 8 63 43 105 77 129 105 148 117
202 133 74 23 113 12 181 -48 75 -65 142 -97 210 -97 28 0 52 2 52 5 0 3 -27
38 -61 78 -93 110 -230 292 -293 389 -108 166 -131 252 -78 295 35 28 23 28
-63 -3z"/>
<path d="M424 9305 c15 -175 48 -501 71 -695 82 -695 136 -1405 166 -2190 14
-379 14 -1467 0 -1855 -32 -854 -99 -1725 -176 -2280 -7 -55 -12 -101 -10
-103 1 -2 37 36 79 85 151 174 295 396 425 653 249 497 402 1054 467 1700 21
218 29 721 15 965 -62 1043 -343 2163 -844 3360 -85 204 -184 425 -193 434 -4
3 -3 -30 0 -74z"/>
<path d="M2881 8993 c-176 -213 -791 -2337 -1591 -5493 -60 -235 -110 -413
-120 -425 -40 -48 -30 -46 28 3 75 66 105 101 144 168 17 31 34 51 42 48 83
-32 810 881 2115 2656 127 173 266 363 308 421 43 59 89 115 103 124 29 19 18
17 -64 -16 -119 -47 -339 -289 -882 -969 -384 -481 -1368 -1755 -1441 -1866
-8 -14 -17 -23 -19 -21 -2 2 24 82 57 178 202 581 576 1837 999 3349 189 676
480 1743 480 1761 0 14 -18 31 -106 102 -22 17 -23 16 -53 -20z"/>
<path d="M3663 8290 c-17 -6 -44 -25 -59 -42 -26 -32 -26 -36 -20 -118 7 -98
38 -310 61 -420 67 -317 174 -467 321 -446 24 3 94 27 156 52 92 38 128 48
190 52 69 4 84 2 132 -22 66 -32 157 -127 206 -214 19 -34 40 -69 45 -78 15
-22 166 208 254 386 196 396 181 642 -46 755 -79 39 -276 77 -408 79 -131 1
-168 -10 -236 -70 -27 -24 -57 -44 -66 -44 -9 0 -59 20 -112 44 -53 24 -127
54 -166 66 -79 24 -204 34 -252 20z"/>
<path d="M3145 7755 c-79 -15 -162 -37 -211 -55 -24 -9 -24 -11 -9 -39 25 -50
121 -146 189 -190 35 -23 102 -58 150 -77 128 -52 456 -113 456 -85 0 6 -42
103 -92 216 l-93 205 -50 16 c-72 22 -243 27 -340 9z"/>
<path d="M5040 7401 c-20 -4 -41 -11 -48 -15 -12 -7 -202 -322 -202 -335 0 -3
53 -38 117 -76 127 -76 140 -79 232 -51 178 54 328 152 442 288 l51 62 -43 22
c-158 80 -421 130 -549 105z"/>
<path d="M4245 7290 c-110 -29 -325 -126 -393 -177 -25 -19 -32 -31 -30 -50 7
-60 109 -92 288 -93 138 -1 178 -15 235 -84 54 -66 85 -80 175 -80 58 0 85 5
117 22 49 26 63 47 63 96 0 124 -245 388 -357 385 -15 0 -59 -8 -98 -19z"/>
<path d="M3135 7276 c-193 -47 -155 -168 169 -541 86 -100 136 -180 136 -220
0 -11 -20 -52 -45 -89 -69 -105 -63 -116 59 -116 62 0 82 5 133 31 84 43 177
115 296 229 l102 98 -30 22 c-16 13 -64 58 -106 100 -112 114 -157 220 -129
304 14 44 53 92 94 117 36 22 34 23 -99 43 -246 39 -477 47 -580 22z"/>
<path d="M4828 6856 c-4 -84 -18 -110 -85 -162 -58 -44 -147 -64 -291 -64 -66
0 -143 5 -172 10 -29 6 -56 8 -59 5 -9 -10 29 -250 55 -348 46 -172 86 -235
180 -282 l57 -29 18 22 c10 13 20 49 25 89 12 113 46 133 352 202 388 88 535
157 518 244 -18 90 -184 210 -464 336 -63 28 -117 51 -122 51 -4 0 -10 -34
-12 -74z"/>
<path d="M4033 6871 l-52 -38 24 -35 c30 -45 97 -78 156 -78 51 0 135 22 164
44 17 12 18 17 6 39 -7 14 -27 35 -44 48 l-30 22 -22 -26 c-26 -34 -30 -34
-45 3 -15 35 -21 37 -45 10 -25 -28 -32 -25 -39 15 -4 19 -10 35 -14 35 -4 -1
-30 -18 -59 -39z"/>
<path d="M4013 6558 c-91 -121 -165 -205 -215 -245 -49 -40 -38 -41 80 -13 46
11 94 20 108 20 47 0 92 -27 113 -68 24 -47 84 -102 111 -102 24 0 24 -6 -1
64 -35 100 -69 238 -75 307 -7 71 4 108 34 110 24 1 -26 17 -59 18 -22 1 -38
-14 -96 -91z"/>
<path d="M2115 3661 c-435 -212 -827 -512 -1089 -834 -246 -303 -429 -685
-515 -1077 -86 -389 -98 -787 -41 -1345 11 -104 20 -215 20 -247 0 -32 4 -58
8 -58 4 0 14 35 21 78 61 372 233 985 399 1417 313 818 701 1460 1214 2008 60
64 108 117 106 117 -2 0 -57 -26 -123 -59z"/>
</g>
</svg>
